<svg width="16" height="16" viewBox="0 0 16 16" fill="none" xmlns="http://www.w3.org/2000/svg">
<g id="download-alt">
<g id="Vector">
<path d="M5.05064 10.25L7.44261 12.642L7.44261 4.8125C7.44261 4.79308 7.44359 4.77387 7.44546 4.75498C7.47434 4.47133 7.71381 4.25 8.00511 4.25C8.31576 4.25 8.56761 4.50185 8.56761 4.8125L8.56761 12.642L10.9596 10.25C11.1793 10.0303 11.5354 10.0303 11.7551 10.25C11.9748 10.4696 11.9748 10.8258 11.7551 11.0455L8.40284 14.3977C8.29739 14.5032 8.15429 14.5625 8.00511 14.5625C7.85594 14.5625 7.71284 14.5032 7.60731 14.3977L4.25511 11.0455C4.03544 10.8259 4.03544 10.4697 4.25511 10.25C4.47479 10.0303 4.83096 10.0303 5.05064 10.25Z" fill="#2C2C2C"/>
<path d="M14.7551 1.25C14.7551 1.56073 14.5033 1.8125 14.1926 1.8125L1.81763 1.8125C1.5069 1.8125 1.25513 1.56073 1.25513 1.25C1.25513 0.939351 1.5069 0.687501 1.81763 0.687501L14.1926 0.6875C14.5033 0.6875 14.7551 0.93935 14.7551 1.25Z" fill="#2C2C2C"/>
</g>
</g>
</svg>
