<svg width="32" height="32" viewBox="0 0 32 32" fill="none" xmlns="http://www.w3.org/2000/svg">
<g id="arrow-right">
<path id="Vector" d="M21.3372 10.7471L25.5897 14.9996H1C0.44772 14.9996 0 15.4473 0 15.9996C0 16.5519 0.44772 16.9996 1 16.9996H25.5897L21.3372 21.252C20.9468 21.6425 20.9468 22.2757 21.3372 22.6663C21.7277 23.0568 22.3609 23.0568 22.7515 22.6663L28.7111 16.7067C29.1016 16.3161 29.1016 15.6831 28.7111 15.2925L22.7515 9.33293C22.5073 9.08885 22.1685 8.99732 21.8533 9.05835C21.6643 9.09496 21.4837 9.18648 21.3372 9.33293C21.3312 9.33904 21.3252 9.3452 21.3192 9.35141C20.9468 9.74319 20.9528 10.3627 21.3372 10.7471Z" fill="white"/>
</g>
</svg>
