<svg width="16" height="16" viewBox="0 0 16 16" fill="none" xmlns="http://www.w3.org/2000/svg">
<g id="thin-arrow-right">
<path id="Vector" d="M11.0022 5.04527L13.3942 7.43728H1.0647C0.75404 7.43728 0.502197 7.68913 0.502197 7.99978C0.502197 8.31043 0.75404 8.56228 1.0647 8.56228H13.3942L11.0022 10.9543C10.7826 11.1739 10.7826 11.5301 11.0022 11.7498C11.2218 11.9695 11.578 11.9695 11.7977 11.7498L15.15 8.3975C15.3696 8.17783 15.3696 7.82173 15.15 7.60205L11.7977 4.24978C11.6604 4.11248 11.4698 4.06099 11.2925 4.09532C11.1861 4.11592 11.0846 4.1674 11.0022 4.24978C10.9988 4.25321 10.9954 4.25668 10.9921 4.26017C10.7826 4.48054 10.7859 4.82903 11.0022 5.04527Z" fill="#2C2C2C"/>
</g>
</svg>
