<svg width="16" height="16" viewBox="0 0 16 16" fill="none" xmlns="http://www.w3.org/2000/svg">
<g id="thin-arrow-right-up">
<path id="Vector" d="M8.03562 3.78949H11.4184L2.70015 12.5077C2.60884 12.5991 2.55549 12.714 2.54009 12.8328C2.53696 12.8569 2.5354 12.8812 2.5354 12.9055C2.5354 13.0494 2.59032 13.1934 2.70015 13.3032C2.91982 13.5229 3.27597 13.5229 3.49565 13.3032L12.2139 4.58498V7.96775C12.2139 8.27847 12.4658 8.53025 12.7764 8.53025C13.0871 8.53025 13.3389 8.27847 13.3389 7.96775V3.22698C13.3389 2.91632 13.0871 2.66449 12.7764 2.66449H8.03562C7.97735 2.66449 7.92117 2.67334 7.86837 2.68977C7.6394 2.76099 7.47312 2.97458 7.47312 3.22699C7.47312 3.2464 7.4741 3.26559 7.47605 3.2845C7.50485 3.56814 7.7444 3.78949 8.03562 3.78949Z" fill="#2C2C2C"/>
</g>
</svg>
